<svg width="45" height="40" viewBox="0 0 45 40" fill="none" xmlns="http://www.w3.org/2000/svg">
<path d="M2.73516 6.49339H42.2648C43.7738 6.49339 45 5.03817 45 3.24586C45 1.45354 43.7738 0 42.2648 0H2.73516C1.22766 0.00166882 0 1.45688 0 3.24586C0 5.03484 1.22766 6.49339 2.73516 6.49339ZM42.2648 16.755H2.73516C1.22766 16.755 0 18.2102 0 20.0008C0 21.7915 1.22766 23.2467 2.73516 23.2467H42.2648C43.7738 23.2467 45 21.7915 45 20.0008C45 18.2102 43.7738 16.755 42.2648 16.755ZM42.2648 33.5083H2.73516C1.22766 33.5083 0 34.9652 0 36.7558C0 38.5465 1.22766 40 2.73516 40H42.2648C43.7738 40 45 38.5448 45 36.7558C45 34.9668 43.7738 33.5083 42.2648 33.5083Z" fill="#415DA1"/>
</svg>
