<svg width="23" height="23" viewBox="0 0 23 23" fill="none" xmlns="http://www.w3.org/2000/svg">
<path d="M22.663 21.0358C22.7698 21.1427 22.8546 21.2695 22.9124 21.4091C22.9702 21.5487 23 21.6983 23 21.8494C23 22.0005 22.9702 22.1501 22.9124 22.2897C22.8546 22.4293 22.7698 22.5562 22.663 22.663C22.5562 22.7698 22.4293 22.8546 22.2897 22.9124C22.1501 22.9702 22.0005 23 21.8494 23C21.6983 23 21.5487 22.9702 21.4091 22.9124C21.2695 22.8546 21.1427 22.7698 21.0358 22.663L11.5 13.1257L1.96415 22.663C1.74838 22.8788 1.45573 23 1.15058 23C0.845424 23 0.55277 22.8788 0.336996 22.663C0.121221 22.4472 6.01527e-09 22.1546 0 21.8494C-6.01527e-09 21.5443 0.121221 21.2516 0.336996 21.0358L9.87428 11.5L0.336996 1.96415C0.121221 1.74838 -2.27356e-09 1.45573 0 1.15058C2.27356e-09 0.845424 0.121221 0.55277 0.336996 0.336996C0.55277 0.121221 0.845424 2.27356e-09 1.15058 0C1.45573 -2.27356e-09 1.74838 0.121221 1.96415 0.336996L11.5 9.87428L21.0358 0.336996C21.2516 0.121221 21.5443 -6.01527e-09 21.8494 0C22.1546 6.01527e-09 22.4472 0.121221 22.663 0.336996C22.8788 0.55277 23 0.845424 23 1.15058C23 1.45573 22.8788 1.74838 22.663 1.96415L13.1257 11.5L22.663 21.0358Z" fill="white"/>
</svg>
